<svg xmlns="http://www.w3.org/2000/svg" width="400" height="750" viewBox="0 0 400 750">
  <!-- Background -->
  <rect width="400" height="750" fill="#f5f6fa"/>

  <!-- Status Bar -->
  <rect width="400" height="44" fill="#ffffff"/>
  <text x="20" y="30" font-family="-apple-system, Arial" font-size="14" font-weight="600" fill="#1a1a1a">9:41</text>
  <text x="320" y="30" font-family="Arial" font-size="11" fill="#1a1a1a">●●●●●</text>
  <text x="365" y="30" font-family="Arial" font-size="12" fill="#1a1a1a">WiFi</text>
  <rect x="380" y="18" width="10" height="12" rx="2" fill="#1a1a1a"/>
  <rect x="392" y="20" width="2" height="8" rx="1" fill="#1a1a1a"/>

  <!-- Navigation Bar -->
  <rect y="44" width="400" height="50" fill="#ffffff"/>
  <text x="20" y="74" font-family="Arial" font-size="18" fill="#667eea">‹</text>
  <text x="200" y="76" text-anchor="middle" font-family="-apple-system, Microsoft YaHei, Arial" font-size="17" font-weight="500" fill="#333333">资产详情</text>

  <!-- Content Area -->
  <rect y="94" width="400" height="656" fill="#f5f6fa"/>

  <!-- Asset Card -->
  <rect x="20" y="110" width="360" height="200" rx="16" fill="#ffffff"/>

  <!-- Asset Header -->
  <rect x="36" y="126" width="56" height="56" rx="14" fill="#e6f7ff"/>
  <text x="64" y="162" text-anchor="middle" font-family="Arial" font-size="24" fill="#1890ff"> </text>
  <text x="104" y="150" font-family="-apple-system, Microsoft YaHei, Arial" font-size="18" font-weight="600" fill="#333333">服务器A</text>
  <text x="104" y="174" font-family="-apple-system, Microsoft YaHei, Arial" font-size="13" fill="#999999">资产编码: AST001</text>

  <!-- Status Badge -->
  <rect x="296" y="134" width="64" height="28" rx="14" fill="#f6ffed"/>
  <circle cx="312" cy="148" r="4" fill="#52c41a"/>
  <text x="340" y="153" text-anchor="middle" font-family="-apple-system, Microsoft YaHei, Arial" font-size="12" fill="#52c41a">正常</text>

  <!-- Asset Info Grid -->
  <rect x="36" y="200" width="155" height="50" rx="10" fill="#f5f6fa"/>
  <text x="56" y="224" font-family="-apple-system, Microsoft YaHei, Arial" font-size="12" fill="#999999">分类</text>
  <text x="56" y="242" font-family="-apple-system, Microsoft YaHei, Arial" font-size="14" font-weight="500" fill="#333333">电子设备</text>

  <rect x="201" y="200" width="155" height="50" rx="10" fill="#f5f6fa"/>
  <text x="221" y="224" font-family="-apple-system, Microsoft YaHei, Arial" font-size="12" fill="#999999">规格型号</text>
  <text x="221" y="242" font-family="-apple-system, Microsoft YaHei, Arial" font-size="14" font-weight="500" fill="#333333">Dell R740</text>

  <rect x="36" y="258" width="155" height="50" rx="10" fill="#f5f6fa"/>
  <text x="56" y="282" font-family="-apple-system, Microsoft YaHei, Arial" font-size="12" fill="#999999">使用科室</text>
  <text x="56" y="300" font-family="-apple-system, Microsoft YaHei, Arial" font-size="14" font-weight="500" fill="#333333">技术部</text>

  <rect x="201" y="258" width="155" height="50" rx="10" fill="#f5f6fa"/>
  <text x="221" y="282" font-family="-apple-system, Microsoft YaHei, Arial" font-size="12" fill="#999999">存放位置</text>
  <text x="221" y="300" font-family="-apple-system, Microsoft YaHei, Arial" font-size="14" font-weight="500" fill="#333333">机房A区</text>

  <!-- Location Card -->
  <rect x="20" y="325" width="360" height="120" rx="16" fill="#ffffff"/>
  <rect x="36" y="341" width="28" height="28" rx="8" fill="#fff7e6"/>
  <text x="50" y="360" text-anchor="middle" font-family="Arial" font-size="14" fill="#fa8c16"> </text>
  <text x="72" y="360" font-family="-apple-system, Microsoft YaHei, Arial" font-size="15" font-weight="500" fill="#333333">位置信息</text>

  <rect x="36" y="380" width="328" height="1" fill="#f0f0f0"/>

  <rect x="36" y="392" width="155" height="40" rx="8" fill="#f5f6fa"/>
  <text x="56" y="416" font-family="-apple-system, Microsoft YaHei, Arial" font-size="12" fill="#999999">管理科室</text>
  <text x="116" y="416" font-family="-apple-system, Microsoft YaHei, Arial" font-size="13" fill="#333333">行政部</text>

  <rect x="201" y="392" width="155" height="40" rx="8" fill="#f5f6fa"/>
  <text x="221" y="416" font-family="-apple-system, Microsoft YaHei, Arial" font-size="12" fill="#999999">所在仓库</text>
  <text x="281" y="416" font-family="-apple-system, Microsoft YaHei, Arial" font-size="13" fill="#333333">主仓库</text>

  <!-- Inventory Card -->
  <rect x="20" y="460" width="360" height="120" rx="16" fill="#ffffff"/>
  <rect x="36" y="476" width="28" height="28" rx="8" fill="#f6ffed"/>
  <text x="50" y="495" text-anchor="middle" font-family="Arial" font-size="14" fill="#52c41a"> </text>
  <text x="72" y="495" font-family="-apple-system, Microsoft YaHei, Arial" font-size="15" font-weight="500" fill="#333333">库存信息</text>

  <rect x="36" y="515" width="328" height="1" fill="#f0f0f0"/>

  <rect x="36" y="527" width="100" height="40" rx="8" fill="#f5f6fa"/>
  <text x="86" y="544" text-anchor="middle" font-family="-apple-system, Microsoft YaHei, Arial" font-size="11" fill="#999999">库存数量</text>
  <text x="86" y="560" text-anchor="middle" font-family="-apple-system, Microsoft YaHei, Arial" font-size="18" font-weight="600" fill="#333333">5</text>

  <rect x="150" y="527" width="100" height="40" rx="8" fill="#f5f6fa"/>
  <text x="200" y="544" text-anchor="middle" font-family="-apple-system, Microsoft YaHei, Arial" font-size="11" fill="#999999">单价</text>
  <text x="200" y="560" text-anchor="middle" font-family="-apple-system, Microsoft YaHei, Arial" font-size="18" font-weight="600" fill="#333333">¥12000</text>

  <rect x="264" y="527" width="100" height="40" rx="8" fill="#f5f6fa"/>
  <text x="314" y="544" text-anchor="middle" font-family="-apple-system, Microsoft YaHei, Arial" font-size="11" fill="#999999">供应商</text>
  <text x="314" y="560" text-anchor="middle" font-family="-apple-system, Microsoft YaHei, Arial" font-size="13" fill="#333333">戴尔</text>

  <!-- Action Buttons -->
  <rect x="20" y="595" width="360" height="60" rx="16" fill="#ffffff"/>
  <rect x="36" y="607" width="155" height="36" rx="18" fill="#f6ffed"/>
  <text x="114" y="630" text-anchor="middle" font-family="-apple-system, Microsoft YaHei, Arial" font-size="14" fill="#52c41a">  PM维护</text>
  <rect x="204" y="607" width="155" height="36" rx="18" fill="#fff7e6"/>
  <text x="282" y="630" text-anchor="middle" font-family="-apple-system, Microsoft YaHei, Arial" font-size="14" fill="#fa8c16">  故障报修</text>

  <!-- QR Code Card -->
  <rect x="20" y="670" width="360" height="80" rx="16" fill="#ffffff"/>
  <rect x="36" y="686" width="28" height="28" rx="8" fill="#e6f7ff"/>
  <text x="50" y="705" text-anchor="middle" font-family="Arial" font-size="14" fill="#1890ff"> </text>
  <text x="72" y="705" font-family="-apple-system, Microsoft YaHei, Arial" font-size="15" font-weight="500" fill="#333333">资产二维码</text>
  <text x="320" y="705" font-family="-apple-system, Microsoft YaHei, Arial" font-size="12" fill="#1890ff">查看大图 ›</text>

  <!-- QR Code Placeholder -->
  <rect x="300" y="680" width="48" height="48" rx="6" fill="#f5f6fa"/>
  <text x="324" y="710" text-anchor="middle" font-family="Arial" font-size="20" fill="#999999"> </text>
</svg>